<?xml version="1.0" encoding="utf-8"?>
<!-- Generator: Adobe Illustrator 19.2.1, SVG Export Plug-In . SVG Version: 6.00 Build 0)  -->
<svg version="1.1" id="Layer_1" xmlns="http://www.w3.org/2000/svg" xmlns:xlink="http://www.w3.org/1999/xlink" x="0px" y="0px"
	 viewBox="0 0 3000 1000" style="enable-background:new 0 0 3000 1000;" xml:space="preserve">
<style type="text/css">
	.st0{fill:#FFFFFF;}
</style>
<g>
	<path class="st0" d="M471.7,477.1c-9.5-7.5-23.2-11.2-41-11.2c-23.3,0-42.7,10.5-58.3,31.5s-23.4,49.6-23.4,85.7v166h-78.6v-347
		h78.6v71.5h1.4c7.7-24.4,19.5-43.4,35.4-57.1c15.9-13.7,33.7-20.5,53.4-20.5c14.2,0,25.1,2.1,32.5,6.4V477.1z"/>
	<path class="st0" d="M543.6,329.4c-12.9,0-23.9-4.2-33-12.5c-9.1-8.4-13.7-19-13.7-31.9s4.6-23.6,13.7-32.2
		c9.1-8.6,20.2-12.9,33-12.9c13.3,0,24.6,4.3,33.9,12.9c9.3,8.6,13.9,19.3,13.9,32.2c0,12.2-4.6,22.6-13.9,31.3
		C568.2,325,556.9,329.4,543.6,329.4z M582.5,749.2h-78.6v-347h78.6V749.2z"/>
	<path class="st0" d="M623.5,738.4v-72.9c29.4,22.4,61.8,33.5,97.2,33.5c47.4,0,71.2-14,71.2-42c0-7.9-2-14.6-6.1-20.2
		c-4.1-5.5-9.5-10.4-16.4-14.7c-6.9-4.3-15-8.1-24.4-11.5c-9.4-3.4-19.8-7.2-31.3-11.5c-14.2-5.6-27.1-11.6-38.5-18
		c-11.4-6.3-20.9-13.5-28.5-21.5c-7.6-8-13.3-17.1-17.1-27.3c-3.8-10.2-5.8-22-5.8-35.6c0-16.7,3.9-31.5,11.9-44.2
		c7.9-12.8,18.5-23.5,31.9-32.2c13.3-8.7,28.5-15.2,45.4-19.7s34.4-6.6,52.5-6.6c32.1,0,60.8,4.9,86.1,14.6v68.8
		c-24.4-16.7-52.4-25.1-84-25.1c-9.9,0-18.9,1-26.9,3c-8,2-14.9,4.9-20.5,8.5c-5.6,3.6-10.1,8-13.2,13c-3.2,5.1-4.7,10.7-4.7,16.8
		c0,7.5,1.6,13.8,4.7,19c3.2,5.2,7.8,9.8,14.1,13.7c6.2,4,13.7,7.6,22.4,10.8c8.7,3.3,18.7,6.8,30,10.7
		c14.9,6.1,28.3,12.3,40.2,18.6c11.9,6.3,22,13.5,30.3,21.5c8.4,8,14.8,17.3,19.3,27.8c4.5,10.5,6.8,23,6.8,37.4
		c0,17.6-4.1,33-12.2,46.1c-8.1,13.1-19,23.9-32.5,32.5c-13.6,8.6-29.2,15-46.9,19.1c-17.7,4.2-36.4,6.3-56.1,6.3
		C684.2,757.3,651.3,751,623.5,738.4z"/>
	<path class="st0" d="M1218.5,749.2h-99.6L984,582.5h-1.4v166.7h-79V235.5h79v325.6h1.4l127.4-158.9h94.5l-143.3,167.4L1218.5,749.2
		z"/>
	<path class="st0" d="M1499.6,749.2h-76.2V695h-1.4c-23.9,41.6-59.1,62.3-105.4,62.3c-34.1,0-60.8-9.3-80.1-27.8
		c-19.3-18.5-29-43-29-73.5c0-65.5,37.7-103.7,113.2-114.5l103-14.6c0-49.5-23.5-74.2-70.5-74.2c-41.3,0-78.6,14.2-111.8,42.7v-68.8
		c36.6-21.7,78.8-32.5,126.7-32.5c87.6,0,131.5,43.1,131.5,129.4V749.2z M1423.7,578.8l-72.9,10.2c-22.6,2.9-39.6,8.4-51,16.4
		c-11.4,8-17.1,22.1-17.1,42.2c0,14.7,5.3,26.7,15.8,36.1c10.5,9.4,24.6,14.1,42.2,14.1c23.9,0,43.8-8.4,59.5-25.2
		c15.7-16.8,23.5-38,23.5-63.5V578.8z"/>
	<path class="st0" d="M1628.5,749.2h-79V235.5h79V749.2z"/>
	<path class="st0" d="M2601.5,597.1H2365c0.9,32.1,10.8,56.8,29.6,74.2c18.9,17.4,44.8,26.1,77.8,26.1c37,0,71-11.1,102-33.2v63.4
		c-31.6,19.9-73.4,29.8-125.4,29.8c-51.1,0-91.1-15.8-120.1-47.3c-29-31.5-43.5-75.8-43.5-133c0-54,16-98,47.9-132
		c32-34,71.7-51,119.1-51s84.1,15.2,110.1,45.7c26,30.5,39,72.9,39,127.1V597.1z M2525.6,541.5c-0.2-28.2-6.9-50.2-20-65.9
		c-13.1-15.7-31.2-23.5-54.2-23.5c-22.6,0-41.7,8.2-57.4,24.7c-15.7,16.5-25.4,38.1-29,64.7H2525.6z"/>
</g>
<path class="st0" d="M1927.3,402.7l-86.7,252.8c-2.9,11.1-5,19.2-6.1,24.4h-1.7c-3.2-13.6-5.2-21.9-6.1-25.1L1744,402.7h-87.1
	L1794.8,749l-23.4,56.9c-14.5,28.9-36.4,43.4-65.7,43.4c-10.2,0-21.5-2-33.9-6.1v65.4c11.1,2.9,24.8,4.4,41.3,4.4
	c58.7,0,104.4-35.9,136.9-107.8L2001,417v47h173.1l-191.4,256.2v29.5h296.8v-61.3h-186.7l187.4-252.8v-32.9H1927.3z"/>
<g>
	<polygon class="st0" points="2704.3,230.1 2622.8,230.2 2582,159.7 2622.7,89.1 2704.2,89 2745,159.6 	"/>
	<polygon class="st0" points="2575.5,304.5 2494,304.5 2453.2,234 2493.9,163.4 2575.4,163.3 2616.2,233.9 	"/>
	<polygon class="st0" points="2704.8,379.8 2623.3,379.8 2582.5,309.3 2623.2,238.7 2704.7,238.6 2745.5,309.2 	"/>
</g>
<g>
</g>
<g>
</g>
<g>
</g>
<g>
</g>
<g>
</g>
<g>
</g>
</svg>
