<?xml version="1.0" encoding="utf-8"?>
<!-- Generator: Adobe Illustrator 19.2.1, SVG Export Plug-In . SVG Version: 6.00 Build 0)  -->
<svg version="1.1" id="Layer_1" xmlns="http://www.w3.org/2000/svg" xmlns:xlink="http://www.w3.org/1999/xlink" x="0px" y="0px"
	 viewBox="0 0 1200 400" style="enable-background:new 0 0 1200 400;" xml:space="preserve">
<style type="text/css">
	.st0{fill:#F6921E;}
	.st1{fill:#404041;}
	.st2{fill:#BBBDBF;}
</style>
<g>
	<path class="st0" d="M166.5,190.7c-4-3.1-9.7-4.7-17.1-4.7c-9.7,0-17.8,4.4-24.4,13.2s-9.8,20.7-9.8,35.8v69.4H82.4V159.4h32.9
		v29.9h0.6c3.2-10.2,8.1-18.2,14.8-23.9c6.7-5.7,14.1-8.6,22.3-8.6c5.9,0,10.5,0.9,13.6,2.7V190.7z"/>
	<path class="st0" d="M196.6,128.9c-5.4,0-10-1.7-13.8-5.2c-3.8-3.5-5.7-7.9-5.7-13.3c0-5.4,1.9-9.9,5.7-13.5
		c3.8-3.6,8.4-5.4,13.8-5.4c5.6,0,10.3,1.8,14.2,5.4c3.9,3.6,5.8,8.1,5.8,13.5c0,5.1-1.9,9.5-5.8,13.1
		C206.9,127.1,202.2,128.9,196.6,128.9z M212.9,304.4H180V159.4h32.9V304.4z"/>
	<path class="st0" d="M230,299.9v-30.5c12.3,9.3,25.8,14,40.7,14c19.8,0,29.7-5.9,29.7-17.6c0-3.3-0.8-6.1-2.5-8.4
		c-1.7-2.3-4-4.4-6.9-6.2c-2.9-1.8-6.3-3.4-10.2-4.8c-3.9-1.4-8.3-3-13.1-4.8c-5.9-2.4-11.3-4.9-16.1-7.5c-4.8-2.6-8.7-5.6-11.9-9
		c-3.2-3.4-5.5-7.2-7.2-11.4c-1.6-4.2-2.4-9.2-2.4-14.9c0-7,1.7-13.2,5-18.5c3.3-5.3,7.7-9.8,13.3-13.5c5.6-3.6,11.9-6.4,19-8.2
		c7.1-1.8,14.4-2.8,22-2.8c13.4,0,25.4,2,36,6.1v28.8c-10.2-7-21.9-10.5-35.1-10.5c-4.2,0-7.9,0.4-11.3,1.3c-3.4,0.8-6.2,2-8.6,3.5
		c-2.4,1.5-4.2,3.3-5.5,5.5c-1.3,2.1-2,4.5-2,7c0,3.1,0.7,5.8,2,7.9c1.3,2.2,3.3,4.1,5.9,5.7c2.6,1.7,5.7,3.2,9.3,4.5
		c3.6,1.4,7.8,2.9,12.5,4.5c6.2,2.5,11.8,5.1,16.8,7.8c5,2.6,9.2,5.6,12.7,9c3.5,3.4,6.2,7.2,8.1,11.6c1.9,4.4,2.8,9.6,2.8,15.7
		c0,7.4-1.7,13.8-5.1,19.3c-3.4,5.5-7.9,10-13.6,13.6c-5.7,3.6-12.2,6.3-19.6,8c-7.4,1.7-15.2,2.6-23.4,2.6
		C255.4,307.8,241.6,305.2,230,299.9z"/>
	<path class="st0" d="M478.7,304.4h-41.6l-56.4-69.7h-0.6v69.7h-33V89.7h33v136.1h0.6l53.3-66.4h39.5l-59.9,70L478.7,304.4z"/>
	<path class="st1" d="M596.3,304.4h-31.9v-22.7h-0.6c-10,17.4-24.7,26.1-44.1,26.1c-14.3,0-25.4-3.9-33.5-11.6
		c-8.1-7.7-12.1-18-12.1-30.7c0-27.4,15.8-43.3,47.3-47.9l43.1-6.1c0-20.7-9.8-31-29.5-31c-17.3,0-32.9,5.9-46.7,17.8v-28.8
		c15.3-9.1,33-13.6,53-13.6c36.6,0,55,18,55,54.1V304.4z M564.5,233.2l-30.5,4.2c-9.4,1.2-16.6,3.5-21.3,6.9
		c-4.8,3.4-7.2,9.2-7.2,17.6c0,6.1,2.2,11.2,6.6,15.1c4.4,3.9,10.3,5.9,17.6,5.9c10,0,18.3-3.5,24.9-10.6c6.6-7,9.8-15.9,9.8-26.6
		V233.2z"/>
	<path class="st1" d="M650.1,304.4h-33V89.7h33V304.4z"/>
	<path class="st1" d="M1056.9,240.8h-98.9c0.4,13.4,4.5,23.8,12.4,31c7.9,7.3,18.7,10.9,32.5,10.9c15.5,0,29.7-4.6,42.6-13.9v26.5
		c-13.2,8.3-30.7,12.5-52.4,12.5c-21.3,0-38.1-6.6-50.2-19.8c-12.1-13.2-18.2-31.7-18.2-55.6c0-22.6,6.7-41,20-55.2
		c13.4-14.2,30-21.3,49.8-21.3c19.8,0,35.2,6.4,46,19.1c10.9,12.7,16.3,30.5,16.3,53.1V240.8z M1025.2,217.6
		c-0.1-11.8-2.9-21-8.4-27.6c-5.5-6.6-13-9.8-22.7-9.8c-9.4,0-17.4,3.4-24,10.3c-6.6,6.9-10.6,15.9-12.1,27.1H1025.2z"/>
</g>
<g>
	<polygon class="st0" points="1100,89.2 1065,89.2 1047.4,58.8 1064.9,28.4 1100,28.4 1117.6,58.8 	"/>
	<polygon class="st1" points="1047.4,119.6 1012.3,119.6 994.8,89.2 1012.3,58.8 1047.4,58.8 1065,89.2 	"/>
	<polygon class="st2" points="1100.1,150 1065,150 1047.4,119.6 1065,89.2 1100,89.2 1117.6,119.6 	"/>
</g>
<path class="st1" d="M775.1,159.6l-36.3,105.7c-1.2,4.6-2.1,8-2.5,10.2h-0.7c-1.3-5.7-2.2-9.2-2.5-10.5l-34.6-105.4H662l57.7,144.8
	l-9.8,23.8c-6,12.1-15.2,18.1-27.5,18.1c-4.2,0-9-0.8-14.2-2.6v27.3c4.6,1.2,10.4,1.8,17.3,1.8c24.6,0,43.6-15,57.2-45l63.1-162.3
	v19.7h72.4l-80,107.1v12.3h124.1V279h-78.1l78.3-105.7v-13.7H775.1z"/>
<g>
</g>
<g>
</g>
<g>
</g>
<g>
</g>
<g>
</g>
<g>
</g>
</svg>
